<svg xmlns="http://www.w3.org/2000/svg" xmlns:d="http://www.mathworks.com/blockgraphics" xmlns:xlink="http://www.w3.org/1999/xlink" version="1.1" id="svg" width="400" height="340" d:options="PreserveAspect:On;ScalingOnResizeMax:2.0;Rotate:Off;Resize:FitToBlock;">
	<defs>
		<style>
			.font-size-default {
				font-size: 34px; stroke-width: 0.85px;
			}
					</style>
	</defs>
	<g id="part" title="part_0" ie-ports="left:simulink,top:,right:simulink*simulink,bottom:">
		<text id="text" class="text font-size-default" x="109.52" y="13.6">
			<tspan dx="0" dy="30.4" x="109.52">U</tspan>
		</text>
		<text id="text_1" class="text font-size-default" x="254.2" y="154.2">
			<tspan dx="0" dy="30.4" x="254.2">A</tspan>
		</text>
		<path id="Inductor" class="path" style="stroke-width: 4;stroke: #0072bd;" d=" M 93.5,255 L 120.13,255 Q 125.45,227.8 146.75,227.8 Q 168.05,227.8 173.38,255 Q 178.7,227.8 200,227.8 Q 221.3,227.8 226.63,255 Q 231.95,227.8 253.25,227.8 Q 274.55,227.8 279.88,255 L 306.5,255"/>
		<g id="Axis">
			<path id="y_axis" class="path" style="stroke-width:2;" d=" M 142.2,13.6 L 142.2,170"/>
			<path id="x_axis" class="path" style="stroke-width:2;" d=" M 121.8,149.6 L 278.2,149.6"/>
		</g>
		<line id="line" class="line" style="stroke:#a2142f;stroke-width: 2;" x1="134.08" y1="131.7" x2="236.8" y2="60.7"/>
		<line id="line_134" class="line" style="stroke:#a2142f;stroke-width: 2;" x1="236.8" y1="60.7" x2="278.2" y2="60.7"/>
		<line id="line_153" class="line" style="stroke:#a2142f;stroke-width: 2;" x1="134.08" y1="131.7" x2="121.81" y2="131.7"/>
		<line id="line_164" class="line" style="stroke:#0072bd;stroke-width: 4;" x1="97.5" y1="255" x2="67" y2="255"/>
		<line id="line_177" class="line" style="stroke:#0072bd;stroke-width: 4;" x1="0" y1="170" x2="67" y2="170"/>
		<line id="line_203" class="line" style="stroke:#0072bd;stroke-width: 4;" x1="67" y1="170" x2="67" y2="255"/>
		<line id="line_260" class="line" style="stroke:#0072bd;stroke-width: 4;" x1="306.5" y1="255" x2="400" y2="255"/>
		<line id="line_281" class="line" style="stroke-width:4;stroke-linecap: butt;stroke-dasharray:1px, 2.5px;stroke:#a2142f;" x1="200" y1="205.7" x2="200" y2="173"/>
		<line id="line_307" class="line" style="stroke-width:4;stroke-dasharray:1px, 2.5px;stroke:#a2142f;" x1="400" y1="85" x2="278.2" y2="85"/>
	</g>
</svg>
